<?xml version="1.0" encoding="utf-8"?>
<!-- Generator: Adobe Illustrator 24.0.2, SVG Export Plug-In . SVG Version: 6.00 Build 0)  -->
<svg version="1.1" id="Camada_1" xmlns="http://www.w3.org/2000/svg" xmlns:xlink="http://www.w3.org/1999/xlink" x="0px" y="0px"
	 viewBox="0 0 250 106" style="enable-background:new 0 0 250 106;" xml:space="preserve">
<style type="text/css">
	.st0{fill:#1F8C37;}
	.st1{fill:#707070;}
</style>
<g>
	<path class="st0" d="M227.1,79.1c1.2-1.8,2.3-3.6,3.4-5.5c0.1-0.2-0.2-0.8-0.5-1c-3.6-2.8-7.7-4.6-12.2-5.2
		c-8.6-1.2-16,1.3-22.3,7.2c-1,1-2.2,1.3-3.4,0.8c-1.1-0.4-1.9-1.3-1.8-2.5c0-0.8,0.3-1.9,0.9-2.5c5.2-5.2,11.4-8.3,18.8-9.2
		c6.1-0.7,12,0.1,17.6,2.7c3.5,1.6,6.6,3.8,9.3,6.5c1.1,1.1,1.3,2.4,0.5,3.7c-2.2,3.6-4.5,7.3-6.8,10.9c-1.3,2-3.2,2.1-5,0.4
		c-3.4-3.1-7.3-4.6-11.9-4.6c-3,0-5.8,0.9-8.4,2.5c-0.9,0.6-1.1,1.1-0.4,2c0.9,1.3,1.8,2.7,2.6,4.1c0.4,0.6,0.7,0.7,1.4,0.4
		c4.4-1.9,8.6-1.5,12.6,1.1c0.8,0.5,1.6,1.3,2.2,2.1c0.8,1.1,0.5,2.8-0.5,3.7c-1.2,1.1-2.6,1-4.1,0c-1.1-0.8-2.3-1.5-3.6-1.9
		c-2.2-0.6-4.1,0.1-5.8,1.5c-2.1,1.8-3.8,1.5-5.3-0.9c-2.2-3.5-4.4-6.9-6.5-10.4c-0.9-1.4-0.7-2.8,0.5-3.9c4.2-4,9.1-6.2,14.9-6.4
		c4.8-0.2,9.2,1,13.3,3.6C226.5,78.7,226.7,78.9,227.1,79.1z"/>
	<g>
		<path class="st0" d="M123,19.4c3.6-2.3,7.7-3,12-1.8c3.2,0.9,5.8,2.7,7.8,5.5c3.6,5,3.7,12.2,0.1,17c-2.3,3.1-5.3,5.1-9.2,5.8
			c-3.8,0.7-7.4-0.1-10.8-2.2c0,0.7-0.1,1.1-0.1,1.6c0,3,0,6.1,0,9.1c0,2.2-1.3,3.3-3.4,3.2c-1.5-0.1-2.6-1.1-2.7-2.6
			c0-0.2,0-0.5,0-0.7c0-11.2,0-22.5,0-33.7c0-2.6,2.2-4.2,4.4-3C121.7,17.8,122.2,18.6,123,19.4z M131,39.8c4.4,0.3,8.5-3.9,8.4-8.2
			c-0.1-4.6-3.7-8.4-8.3-8.4c-4.7,0-8.4,3.7-8.4,8.3C122.7,36.2,126.4,39.8,131,39.8z"/>
		<path class="st0" d="M174.6,44c-2,0.6-3.9,1.4-5.8,1.9c-5.7,1.2-12.4-2.1-15.1-7.3c-1.2-2.3-1.8-4.7-1.7-7.3c0.1-3.6,0-7.2,0-10.8
			c0-2,1.2-3.3,3-3.3c1.8,0,3.1,1.3,3.1,3.3c0,3.8,0,7.5,0,11.3c0,3.7,2.3,6.9,5.8,7.9c3.3,1,6.7,0.2,9.1-2.9
			c1.1-1.4,1.7-3.1,1.7-4.9c0-3.8,0-7.6,0-11.4c0-1.7,1-2.9,2.6-3.2c1.5-0.3,2.8,0.5,3.4,2c0.2,0.4,0.2,0.9,0.2,1.3
			c0,7.7,0,15.4,0,23c-0.1,7.7-6.6,14.1-14.3,14.1c-1.9,0-3.2-1.2-3.2-2.9c-0.1-1.8,1.1-3.1,3.1-3.2C171,51.1,174.3,48.1,174.6,44z"
			/>
		<path class="st0" d="M23.4,39.8c0.4,0,0.9,0,1.3,0c4.4,0,8.8,0,13.2,0c1.4,0,2.5,0.6,3.1,1.9c0.6,1.2,0.4,2.4-0.5,3.2
			c-0.6,0.5-1.5,1-2.3,1c-7.6,0.1-15.2,0.1-22.8,0c-1.4,0-2.4-0.6-2.9-1.9c-0.5-1.3-0.2-2.5,0.9-3.5c5.4-5.4,10.8-10.8,16.2-16.2
			c0.3-0.3,0.5-0.6,1-1.1c-0.7-0.1-1.1-0.1-1.5-0.1c-4.5,0-9,0-13.6,0c-1.3,0-2.3-0.5-2.9-1.8c-0.5-1.1-0.4-2.1,0.3-3.1
			c0.7-1,1.7-1.3,2.8-1.3c7.4,0,14.8,0,22.2,0c1.4,0,2.6,0.5,3.2,1.9c0.6,1.5,0.1,2.6-1,3.7c-5.3,5.2-10.5,10.5-15.8,15.8
			c-0.4,0.4-0.7,0.7-1.1,1.1C23.3,39.6,23.3,39.7,23.4,39.8z"/>
		<path class="st0" d="M70.1,43.9c-2,0.7-3.9,1.5-5.9,1.9c-5.8,1.3-12.4-2-15.1-7.2c-4.4-8.5-0.5-18.2,8.7-21
			c7.8-2.3,15.8,2.3,17.9,9.9c0.4,1.5,0.6,3.2,0.6,4.8c0.1,3.5,0.1,6.9,0,10.4c0,2.8-2.5,4.3-4.7,2.9C70.9,45.1,70.5,44.4,70.1,43.9
			z M61.7,39.8c4.7,0,8.3-3.5,8.3-8.2c0-4.7-3.6-8.4-8.1-8.5c-4.6,0-8.5,3.7-8.5,8.3C53.4,36.1,57.1,39.8,61.7,39.8z"/>
		<path class="st0" d="M91.8,24.9c0,6.1,0,12.1,0,18.2c0,2.3-2.4,3.7-4.5,2.7c-1.1-0.5-1.5-1.5-1.7-2.6c0-0.3,0-0.6,0-1
			c0-11.6,0-23.2,0-34.8c0-2.2,1.1-3.6,2.9-3.6c2-0.1,3.3,1.1,3.3,3.1C91.8,12.8,91.8,18.8,91.8,24.9C91.8,24.9,91.8,24.9,91.8,24.9
			z"/>
		<path class="st0" d="M107.2,24.9c0,6,0,12,0,17.9c0,1.6-0.6,2.5-2,3c-1.2,0.5-2.6,0.2-3.4-0.9c-0.4-0.6-0.8-1.5-0.8-2.2
			c0-11.9,0-23.8,0-35.7c0-2.1,1.2-3.4,3.1-3.4c1.9,0,3,1.3,3.1,3.4C107.2,13,107.2,19,107.2,24.9z"/>
	</g>
	<g>
		<path class="st1" d="M131.3,77.9c0.2-0.3,0.3-0.6,0.4-0.8c0.5-0.7,1.2-1.2,1.9-0.8c0.6,0.3,1.1,1,1.4,1.6c0.2,0.4,0,0.9,0,1.4
			c0,4.7,0,9.4,0,14.1c0,4.8-4.3,8.9-9,9c-1.3,0-2.1-0.6-2.1-1.6c-0.1-1.1,0.7-1.8,2-1.9c3.2-0.3,5.5-2.7,5.3-5.5
			c-5.6,2.8-10.5,2.2-13.8-3.6c-2-3.5-1.1-7.9,1.6-10.7C121.5,76.5,126.2,74.7,131.3,77.9z M131.4,85.5c0-3.2-2.5-5.7-5.6-5.7
			c-3.2,0-5.8,2.6-5.8,5.7c0,3.1,2.6,5.7,5.7,5.7C128.9,91.3,131.4,88.7,131.4,85.5z"/>
		<path class="st1" d="M101.1,93.1c-2.6,1.6-5.4,2.2-8.3,1.3c-1.9-0.6-3.5-1.7-4.7-3.3c-2.4-3.1-2.6-7.6-0.3-10.8
			c3.6-4.9,8.2-5.2,13.5-2.5c0-1.6,0-3.1,0-4.5c0-1.4,0-2.7,0-4.1c0-1.2,0.8-2,1.8-2c1,0,1.7,0.8,1.7,2c0,7.9,0,15.7,0,23.6
			c0,1-0.4,1.7-1.3,1.9c-0.9,0.2-1.6-0.2-2.1-1C101.4,93.6,101.3,93.4,101.1,93.1z M95.5,91.2c3.1,0,5.7-2.5,5.8-5.6
			c0-3.2-2.6-5.8-5.7-5.8c-3.1,0-5.7,2.5-5.8,5.6C89.7,88.5,92.4,91.2,95.5,91.2z"/>
		<path class="st1" d="M169,93.1c-2.1,1.2-4.2,1.9-6.5,1.7c-4.3-0.4-8-4.1-8.3-8.3c-0.4-4.8,2.5-9,7-10c6.1-1.5,11.5,2.8,11.7,9.2
			c0.1,2.2,0,4.4,0,6.5c0,1.1-0.1,2.2-1.3,2.5C170.2,95.1,169.6,94.3,169,93.1z M169.2,85.4c0-3.1-2.6-5.7-5.7-5.7
			c-3.1,0-5.8,2.7-5.8,5.8c0,3.1,2.6,5.7,5.7,5.7C166.6,91.2,169.2,88.6,169.2,85.4z"/>
		<path class="st1" d="M146.6,81.1c0-3.6,0-7.2,0-10.8c0-0.4,0-0.7,0-1.1c0.1-1.2,0.9-2,1.9-1.9c1,0,1.7,0.9,1.7,2
			c0,1.1,0,2.2,0,3.3c0,0.7,0.3,1,1,1c1.5,0,3,0,4.5,0c1.4,0,2.1,0.7,2.1,1.8c0,1.1-0.7,1.7-2,1.7c-1.3,0-2.6,0-3.9,0
			c-1.6,0-1.6,0-1.6,1.6c0,4.7,0,9.4,0,14.2c0,1-0.4,1.7-1.4,2c-0.9,0.2-1.6-0.1-1.9-0.9c-0.2-0.5-0.2-1.1-0.2-1.6
			C146.5,88.5,146.6,84.8,146.6,81.1z"/>
		<path class="st1" d="M180.3,81c0,3.8,0,7.7,0,11.5c0,1.5-0.6,2.3-1.7,2.3c-1.2,0-1.9-0.8-1.9-2.3c0-7.6,0-15.3,0-22.9
			c0-1.8,1.2-2.7,2.6-2.1c0.8,0.4,1,1.1,1,1.9C180.3,73.3,180.3,77.1,180.3,81z"/>
		<path class="st1" d="M108.8,85.5c0-2.4,0-4.8,0-7.3c0-1.3,0.6-2,1.7-2.1c1.1-0.1,2,0.7,2,2c0,4.9,0,9.8,0,14.6
			c0,1.3-0.9,2.1-1.9,2c-1.1,0-1.7-0.9-1.7-2.2C108.8,90.3,108.8,87.9,108.8,85.5z"/>
		<path class="st1" d="M139.1,85.5c0-2.4,0-4.8,0-7.1c0-1.5,0.6-2.2,1.8-2.2c1.1,0,1.8,0.8,1.8,2.2c0,4.8,0,9.5,0,14.3
			c0,1.4-0.7,2.2-1.8,2.2c-1.1,0-1.7-0.8-1.7-2.2C139,90.3,139.1,87.9,139.1,85.5C139.1,85.5,139.1,85.5,139.1,85.5z"/>
	</g>
</g>
</svg>
