<?xml version="1.0" encoding="utf-8"?>
<!-- Generator: Adobe Illustrator 24.0.2, SVG Export Plug-In . SVG Version: 6.00 Build 0)  -->
<svg version="1.1" id="Camada_1" xmlns="http://www.w3.org/2000/svg" xmlns:xlink="http://www.w3.org/1999/xlink" x="0px" y="0px"
	 viewBox="0 0 266.9 71.7" style="enable-background:new 0 0 266.9 71.7;" xml:space="preserve">
<style type="text/css">
	.st0{fill:#1F8C37;}
	.st1{fill:#686867;}
</style>
<g>
	<path class="st0" d="M53.8,23.8c0,2.9,0,2.9-2.6,3.7c-6,1.7-11.9,3.4-17.9,5c-0.5,0.1-1,0.1-1.5,0c-6.4-1.8-12.8-3.6-19.3-5.4
		c-0.9-0.3-1.4-0.7-1.3-1.9c0.1-0.9,0.1-1.8,0-2.6c-0.2-1.4,0.3-1.9,1.5-2.2c6.4-1.7,12.7-3.5,19.1-5.3c0.5-0.1,1-0.1,1.5,0
		c6.4,1.8,12.8,3.6,19.3,5.4c1,0.3,1.4,0.7,1.3,1.9C53.8,22.8,53.8,23.3,53.8,23.8z"/>
	<path class="st0" d="M53.8,45.1c0,1.8,0.1,3.5,0,5.1c0,0.3-0.6,0.8-1,0.9c-3.8,1.1-7.6,2.2-11.5,3.3c-2.6,0.7-5.2,1.5-7.8,2.2
		c-0.5,0.1-1.1,0.1-1.6,0C25.5,54.9,19,53,12.6,51.3c-1-0.3-1.4-0.7-1.3-1.9c0.1-1.3,0-2.6,0-4.2c2,0.5,3.9,1,5.8,1.6
		c4.8,1.4,9.6,2.8,14.4,4.1c0.6,0.2,1.4,0.1,2.1,0c6.4-1.8,12.7-3.6,19-5.4C52.9,45.3,53.3,45.3,53.8,45.1z"/>
	<path class="st0" d="M53.8,33.1c0,1.8,0,3.4,0,5c0,0.3-0.4,0.9-0.7,1c-6.6,1.9-13.2,3.8-19.8,5.6c-0.5,0.1-1,0.1-1.5-0.1
		c-6.5-1.8-12.9-3.7-19.4-5.5c-0.8-0.2-1.1-0.6-1-1.6c0.1-0.8,0-1.6,0-2.4c0-2.1,0-2.1,1.7-1.6c6.2,1.8,12.4,3.5,18.6,5.2
		c0.5,0.1,1.1,0.1,1.6,0c6.5-1.8,13-3.6,19.5-5.5C53.1,33.2,53.4,33.2,53.8,33.1z"/>
	<path class="st1" d="M255,20.8c-3.2,4.3-6.1,8.2-9,12.2c3.2,5,6.3,9.8,9.6,15.1c-2.3,0-4.2,0.1-6.1-0.1c-0.4,0-0.9-0.8-1.2-1.3
		c-1.9-3-3.8-6.1-5.8-9.3c-4.1,2.5-1.8,7-2.7,10.5c-1.7,0-3.5,0-5.4,0c0-9,0-17.9,0-27c1.8,0,3.5,0,5.5,0c0,3.5,0,7.1,0,11.3
		c2.5-3.3,4.7-6,6.6-8.9c1.3-2,2.8-2.9,5-2.6C252.6,20.9,253.6,20.8,255,20.8z"/>
	<path class="st1" d="M84.7,21c2.1,0,3.8,0,5.8,0c0,4.6-0.1,9.1,0,13.6c0,1.7,0.4,3.4,0.9,5c0.6,2,2.2,3,4.1,3c2,0,3.5-1,4.2-3.1
		c0.5-1.4,0.7-3,0.8-4.6c0.1-4.6,0-9.1,0-13.9c1.9,0,3.7,0,5.4,0c0,6,0.5,12-0.1,17.8c-0.7,6.4-5,9.8-10.5,9.6
		c-5.6-0.2-9.3-3.9-10.2-10.1c-0.2-1.3-0.3-2.5-0.3-3.8C84.7,30,84.7,25.6,84.7,21z"/>
	<path class="st1" d="M148.2,45.1c0.9-2,1.6-3.7,2.3-5.2c2.2,0.9,4.3,1.7,6.4,2.6c0.3,0.1,0.6,0.2,1,0.2c1.4,0,3.1,0.4,3.5-1.7
		c0.4-2-1.4-2.3-2.6-2.8c-1.9-0.8-3.8-1.3-5.6-2.2c-4.8-2.5-5.4-9.7-1.1-13.2c3.6-3,7.5-2.5,11.4-1c1.1,0.4,2.1,1.1,3.5,1.8
		c-0.9,1.8-1.6,3.5-2.4,5c-1.9-0.8-3.6-1.5-5.4-2.1c-0.7-0.2-1.6-0.2-2.3,0c-0.7,0.3-1.6,1-1.6,1.6c0,0.8,0.6,1.8,1.2,2.2
		c0.8,0.6,1.8,0.8,2.8,1.1c1.4,0.5,2.8,0.9,4.1,1.5c3,1.4,4.4,3.8,4.2,7.4c-0.1,3.6-1.7,6.2-4.7,7.3C157.8,49.4,153,48.1,148.2,45.1
		z"/>
	<path class="st1" d="M209.4,48c-0.2,0-0.5,0.1-0.8,0.1c-4.5,0.1-4.5,0.1-6.2-4.6c0-0.1-0.1-0.3-0.2-0.4c-1.8-2.2-4.1-0.7-6.1-1
		c-0.6-0.1-1.6,0.6-1.9,1.2c-0.7,1.5-0.8,3.9-1.8,4.5c-1.4,0.8-3.4,0.2-5.1,0.2c-0.1,0-0.1,0-0.3-0.2c1.8-5.7,3.7-11.4,5.5-17.1
		c0.9-2.8,1.9-5.6,2.7-8.5c0.4-1.2,0.9-1.7,2-1.6c0.9,0.1,1.7-0.1,2.6,0.1c0.5,0.1,1.2,0.5,1.3,0.9c2.8,8.6,5.5,17.3,8.3,26
		C209.5,47.8,209.4,47.9,209.4,48z M201,37.4c-0.9-3-1.7-5.8-2.7-9c-1,3.3-1.8,6.1-2.7,9C197.5,37.4,199.1,37.4,201,37.4z"/>
	<path class="st1" d="M231.3,26.8c-1.3,1.1-2.7,2.1-4,3.2c-3.2-4.1-7.2-4.7-9.8-1.6c-2.8,3.3-2.7,9.6,0.4,12.6
		c2.8,2.8,6.6,2.1,9.4-2c0.7,0.5,1.4,0.9,2.2,1.4c0.7,0.5,1.5,1,2.2,1.5c-1.6,4.6-6.8,7.3-12.1,6.3c-5.3-1-9.6-6.8-9.8-13.3
		c-0.2-6.5,3.6-12.3,8.9-13.7C224.1,19.6,229.3,21.9,231.3,26.8z"/>
	<path class="st1" d="M66,20.9c5.4,0,10.7,0,16.2,0c0,1.9,0,3.6,0,5.5c-3.5,0-6.9,0-10.5,0c0,1.9,0,3.7,0,5.7c2.9,0,5.7,0,8.6,0
		c0,1.8,0,3.3,0,5.1c-2.8,0-5.7,0-8.7,0c0,3.7,0,7.1,0,10.7c-2,0-3.7,0-5.6,0C66,39.1,66,30.1,66,20.9z"/>
	<path class="st1" d="M181.8,48.1c-2.1,0-3.8,0-5.8,0c0-7.1,0-14.2,0-21.5c-2.5,0-4.8,0-7.2,0c0-1.9,0-3.6,0-5.5c6.6,0,13.3,0,20,0
		c0,1.7,0,3.4,0,5.4c-2.2,0-4.5,0-7.1,0C181.8,33.7,181.8,40.8,181.8,48.1z"/>
	<path class="st1" d="M130.3,21c1.9,0,3.6,0,5.5,0c0,7.1,0,14.1,0,21.5c3.9,0,7.7,0,11.5,0c0,2,0,3.7,0,5.6c-5.7,0-11.3,0-17,0
		C130.3,39.1,130.3,30.1,130.3,21z"/>
	<path class="st1" d="M116.1,42.5c3.9,0,7.7,0,11.5,0c0,2,0,3.7,0,5.5c-5.7,0-11.3,0-17.1,0c0-9,0-17.9,0-27c1.8,0,3.6,0,5.6,0
		C116.1,28.2,116.1,35.2,116.1,42.5z"/>
</g>
</svg>
